<?xml version="1.0" encoding="utf-8"?>
<!-- Generator: Adobe Illustrator 21.0.0, SVG Export Plug-In . SVG Version: 6.00 Build 0)  -->
<svg version="1.1" id="sec3" xmlns="http://www.w3.org/2000/svg" xmlns:xlink="http://www.w3.org/1999/xlink" x="0px" y="0px"
	 viewBox="0 0 1280 290.9" style="enable-background:new 0 0 1280 290.9;" xml:space="preserve">
<style type="text/css">
	.st0{fill:#FFFFFF;}
	.st1{fill:none;}
	.st2{fill:#462587;}
	.st3{font-family:'Soleil-Bold';}
	.st4{font-size:28px;}
	.st5{fill:#848484;}
	.st6{font-family:'Roboto-Bold';}
	.st7{font-size:19px;}
	.st8{fill:#4F4F4F;stroke:#444444;stroke-width:1.5;stroke-miterlimit:10;}
	.st9{fill:#4F4F4F;stroke:#636363;stroke-miterlimit:10;}
	.st10{fill:#4F4F4F;stroke:#848484;stroke-width:1.5;stroke-miterlimit:10;}
</style>
<rect x="-0.3" class="st0" width="1280" height="290.9"/>
<g>
	<rect x="333.5" y="76.9" class="st1" width="615.8" height="35.1"/>
	<text transform="matrix(1 0 0 1 333.4648 97.9211)" class="st2 st3 st4">Check out what agencies are doing for moms:</text>
</g>
<rect x="444.2" y="177.1" class="st1" width="204.6" height="23"/>
<text transform="matrix(1 0 0 1 444.2367 191.3359)" class="st5 st6 st7">Search agencies...</text>
<line class="st8" x1="429.7" y1="207.1" x2="849.7" y2="207.1"/>
<g>
	<path class="st9" d="M822.8,188.5c1.6,0,3.1-0.6,4.2-1.5l5.1,5.1c0.1,0.1,0.3,0.2,0.4,0.2c0.2,0,0.3-0.1,0.4-0.2
		c0.2-0.2,0.2-0.6,0-0.8l-5.1-5.1c1-1.1,1.5-2.6,1.5-4.2c0-3.6-3-6.6-6.6-6.6c-3.6,0-6.6,3-6.6,6.6
		C816.2,185.6,819.2,188.5,822.8,188.5z M822.8,176.6c3,0,5.4,2.4,5.4,5.4c0,3-2.4,5.4-5.4,5.4c-3,0-5.4-2.4-5.4-5.4
		S819.8,176.6,822.8,176.6z"/>
</g>
<line class="st10" x1="799.8" y1="170.1" x2="799.8" y2="198.1"/>
</svg>
